<?xml version="1.0"?>
<!-- Converted with SVG Converter - Version 0.9.5 (Compiled Mon May 30 09:08:51 2011) - Copyright (C) 2011 Nokia -->
<svg xmlns="http://www.w3.org/2000/svg" width="96px" x="0px" version="1.0" y="0px" height="96px" viewBox="0 0 96 96" xmlns:xlink="http://www.w3.org/1999/xlink" baseProfile="tiny" xml:space="preserve">
 <g id="DO_NOT_EDIT_-_BOUNDING_BOX">
  <rect width="96" fill="none" height="96" id="BOUNDING_BOX"/>
 </g>
 <g id="DO_NOT_EDIT_-_SHADOW">
  <path stroke-opacity="0.4" fill-opacity="0.4" id="SHADOW" d="M88.023,49c0,29.633-10.364,40-40,40c-29.635,0-40-10.367-40-40c0-29.634,10.366-40,40-40&#xd;&#xa;&#x9;&#x9;C77.659,9,88.023,19.365,88.023,49z"/>
 </g>
 <g id="TURQUOISE">
  <linearGradient id="GRAY_2_1_" y1="8.0107" x1="47.9995" y2="87.9897" gradientUnits="userSpaceOnUse" x2="47.9995">
   <stop offset="0.0364" style="stop-color:#09A3BA"/>
   <stop offset="0.1668" style="stop-color:#0999B0"/>
   <stop offset="0.3874" style="stop-color:#0B7F96"/>
   <stop offset="0.6711" style="stop-color:#0C556A"/>
   <stop offset="1" style="stop-color:#0F1C30"/>
  </linearGradient>
  <path fill="url(#GRAY_2_1_)" fill-rule="evenodd" id="GRAY_2" d="M8,47.989c0,29.633,10.365,40,40,40&#xd;&#xa;&#x9;&#x9;c29.637,0,40-10.367,40-40c0-28.985-9.926-39.53-38.091-39.979h-3.817C17.928,8.459,8,19.004,8,47.989z"/>
  <linearGradient id="HIGHLIGHT_GRA2_1_" y1="8" x1="47.9995" y2="88.0005" gradientUnits="userSpaceOnUse" x2="47.9995">
   <stop offset="0.0364" style="stop-color:#F2F2F2"/>
   <stop offset="0.1217" style="stop-color:#E8E8E8"/>
   <stop offset="0.266" style="stop-color:#CECECE"/>
   <stop offset="0.4519" style="stop-color:#A2A2A2"/>
   <stop offset="0.672" style="stop-color:#666666"/>
   <stop offset="0.9184" style="stop-color:#1B1B1B"/>
   <stop offset="1" style="stop-color:#000000"/>
  </linearGradient>
  <path stroke-opacity="0.4" fill="url(#HIGHLIGHT_GRA2_1_)" fill-opacity="0.4" id="HIGHLIGHT_GRA2" d="M48,8C18.365,8,8,18.365,8,48c0,29.633,10.365,40,40,40&#xd;&#xa;&#x9;&#x9;c29.637,0,40-10.367,40-40C88,18.365,77.637,8,48,8z M48,87.023C18.842,87.023,9,77.176,9,48S18.842,8.977,48,8.977&#xd;&#xa;&#x9;&#x9;S87,18.824,87,48S77.158,87.023,48,87.023z"/>
 </g>
 <g id="DRUMKIT_ICON">
  <path stroke-opacity="0.05" fill-opacity="0.05" d="M72.834,53.541c0.693-1.384,1.067-3.277,1.067-4.357c0-0.805-0.154-1.497-0.323-2.249&#xd;&#xa;&#x9;&#x9;c-0.07-0.313-0.146-0.647-0.204-1.029c1.155-1.999,1.741-4.115,1.741-6.292c0-0.21-0.018-0.418-0.044-0.654&#xd;&#xa;&#x9;&#x9;c0.011-0.121,0.019-0.242,0.019-0.365c0-1.776-0.397-3.528-1.181-5.211c0.107-0.48,0.159-0.921,0.159-1.342&#xd;&#xa;&#x9;&#x9;c0-2.685-1.301-4.084-3.873-4.159l-0.132-0.001c-0.156,0-0.306,0.006-0.449,0.018c-4.205-3.576-10.766-6.044-17.655-6.639&#xd;&#xa;&#x9;&#x9;c-0.421-0.915-1.369-1.89-3.5-1.952l-0.139-0.001c-1.621,0-2.82,0.694-3.412,1.962c-5.581,0.497-11.034,2.23-15.052,4.784&#xd;&#xa;&#x9;&#x9;c-0.646-0.257-1.297-0.306-1.758-0.319l-0.138-0.001c-2.425,0-3.815,1.507-3.815,4.135c0,0.486,0.089,0.948,0.184,1.326&#xd;&#xa;&#x9;&#x9;c-1.604,2.296-2.45,4.851-2.45,7.4c0,0.2,0.016,0.398,0.043,0.666c-0.011,0.117-0.019,0.234-0.019,0.354&#xd;&#xa;&#x9;&#x9;c0,1.637,0.337,3.255,1.004,4.815c-0.278,0.8-0.239,1.577-0.215,2.06c0.044,0.831,0.331,1.616,0.665,2.533&#xd;&#xa;&#x9;&#x9;c0.258,0.704,0.55,1.502,0.578,2.034c0.022,0.424-0.183,1.198-0.368,1.897c-0.285,1.068-0.581,2.175-0.521,3.351&#xd;&#xa;&#x9;&#x9;c0.026,0.484,0.115,0.966,0.278,1.504c-0.149,0.437-0.255,0.825-0.292,1.072c-0.272,1.03-0.406,1.968-0.409,2.865&#xd;&#xa;&#x9;&#x9;c-0.005,1.289,0.315,2.601,0.952,3.897c-0.016,0.181-0.02,0.354-0.012,0.523c0.116,2.181,1.658,3.842,3.772,4.092&#xd;&#xa;&#x9;&#x9;c3.946,3.33,10.033,5.729,16.341,6.437c0.512,0.344,1.332,0.719,2.471,0.719c0.683,0,1.607,0,2.451-0.49&#xd;&#xa;&#x9;&#x9;c7.333-0.135,14.416-2.316,19.007-5.854c1.989-0.15,3.085-1.245,3.261-3.257c1.628-2.174,2.487-4.609,2.487-7.052&#xd;&#xa;&#x9;&#x9;c0-0.199-0.017-0.396-0.039-0.607c0.009-0.106,0.016-0.214,0.016-0.322c0-1.197-0.2-2.388-0.593-3.538&#xd;&#xa;&#x9;&#x9;c-0.246-0.721-0.828-1.271-1.534-1.496C71.902,54.652,72.502,54.198,72.834,53.541z M64.04,54.655&#xd;&#xa;&#x9;&#x9;c-0.35,0.99-0.71,2.013-0.749,3.108c-0.04,1.175,0.317,2.188,0.665,3.18c0.2,0.567,0.427,1.211,0.412,1.567&#xd;&#xa;&#x9;&#x9;c-0.013,0.43-0.364,1.238-0.649,1.895c-0.267,0.613-0.521,1.196-0.653,1.822c-2.521,1.871-6.849,4.059-13.401,4.22&#xd;&#xa;&#x9;&#x9;c-0.169-0.743-0.306-1.491-0.306-2.311c0-0.817,0.231-1.396,0.552-2.196c0.331-0.827,0.707-1.764,0.707-2.937&#xd;&#xa;&#x9;&#x9;c0-1.117-0.332-2.126-0.685-3.2c-0.282-0.858-0.574-1.746-0.574-2.494c0-0.079,0.002-0.158,0.006-0.238&#xd;&#xa;&#x9;&#x9;c5.315-0.117,10.704-1.338,15.003-3.388C64.272,53.999,64.15,54.345,64.04,54.655z M42.771,69.92&#xd;&#xa;&#x9;&#x9;c-5.756-1.014-9.402-3.271-11.148-4.615c-0.1-0.48-0.236-0.945-0.381-1.438c-0.235-0.803-0.501-1.712-0.551-2.692&#xd;&#xa;&#x9;&#x9;c-0.042-0.756,0.146-1.293,0.406-2.04c0.269-0.769,0.602-1.726,0.542-2.881c-0.058-1.076-0.428-2.05-0.82-3.079&#xd;&#xa;&#x9;&#x9;c-0.075-0.196-0.151-0.396-0.224-0.593c3.486,2.053,7.833,3.503,12.414,4.13c0.046,0.236,0.068,0.437,0.068,0.598&#xd;&#xa;&#x9;&#x9;c0,0.474-0.265,1.304-0.498,2.036c-0.352,1.104-0.715,2.246-0.715,3.448c0,1.261,0.428,2.371,0.844,3.448&#xd;&#xa;&#x9;&#x9;c0.261,0.673,0.556,1.436,0.556,1.895C43.264,68.59,43.003,69.322,42.771,69.92z"/>
  <path stroke-opacity="0.07" fill-opacity="0.07" d="M72.41,53.328c0.661-1.317,1.018-3.12,1.018-4.145c0-0.752-0.146-1.402-0.308-2.125&#xd;&#xa;&#x9;&#x9;c-0.079-0.349-0.164-0.724-0.226-1.146c-0.005-0.033-0.011-0.064-0.018-0.096c1.171-1.97,1.764-4.054,1.764-6.201&#xd;&#xa;&#x9;&#x9;c0-0.21-0.019-0.417-0.041-0.611l-0.006-0.042c0.015-0.121,0.022-0.243,0.022-0.367c0-1.759-0.405-3.493-1.205-5.158&#xd;&#xa;&#x9;&#x9;c0.088-0.364,0.184-0.856,0.184-1.396c0-0.98,0-3.585-3.405-3.686l-0.126-0.001c-0.212,0-0.412,0.013-0.602,0.039&#xd;&#xa;&#x9;&#x9;c-4.197-3.65-10.822-6.133-17.832-6.685c-0.437-1.23-1.5-1.878-3.175-1.926l-0.134-0.001c-1.537,0-2.619,0.684-3.085,1.937&#xd;&#xa;&#x9;&#x9;c-5.727,0.466-11.281,2.23-15.336,4.872c-0.635-0.311-1.317-0.368-1.805-0.381l-0.133-0.001c-2.155,0-3.341,1.3-3.341,3.662&#xd;&#xa;&#x9;&#x9;c0,0.49,0.101,0.968,0.225,1.42c-1.63,2.263-2.491,4.784-2.491,7.307c0,0.197,0.017,0.392,0.045,0.665&#xd;&#xa;&#x9;&#x9;c-0.012,0.118-0.02,0.235-0.02,0.355c0,1.634,0.35,3.249,1.041,4.802c-0.318,0.771-0.277,1.558-0.253,2.048&#xd;&#xa;&#x9;&#x9;c0.04,0.761,0.315,1.513,0.635,2.392c0.27,0.737,0.575,1.571,0.606,2.174c0.027,0.501-0.181,1.281-0.382,2.041&#xd;&#xa;&#x9;&#x9;c-0.276,1.035-0.563,2.104-0.506,3.207c0.026,0.483,0.123,0.976,0.304,1.537c-0.17,0.477-0.287,0.896-0.333,1.186&#xd;&#xa;&#x9;&#x9;c-0.261,0.99-0.39,1.889-0.394,2.746c-0.004,1.258,0.32,2.537,0.964,3.809c-0.026,0.206-0.034,0.398-0.025,0.586&#xd;&#xa;&#x9;&#x9;c0.107,2.011,1.534,3.493,3.493,3.659c3.905,3.35,9.981,5.747,16.318,6.436c0.47,0.339,1.225,0.703,2.299,0.703&#xd;&#xa;&#x9;&#x9;c0.662,0,1.556,0,2.314-0.489c7.357-0.109,14.424-2.289,18.969-5.845c1.25-0.063,2.814-0.487,2.974-2.969&#xd;&#xa;&#x9;&#x9;c1.619-2.118,2.475-4.494,2.475-6.876c0-0.197-0.017-0.393-0.041-0.604c0.011-0.107,0.019-0.217,0.019-0.326&#xd;&#xa;&#x9;&#x9;c0-1.144-0.191-2.283-0.567-3.385c-0.255-0.746-0.943-1.255-1.726-1.284c-0.08-0.274-0.16-0.552-0.226-0.826&#xd;&#xa;&#x9;&#x9;c0.122,0.024,0.248,0.038,0.375,0.038C71.436,54.375,72.084,53.974,72.41,53.328z M63.766,57.78c-0.037,1.088,0.305,2.057,0.636,3&#xd;&#xa;&#x9;&#x9;c0.226,0.64,0.459,1.3,0.441,1.744c-0.017,0.521-0.368,1.33-0.686,2.063c-0.283,0.649-0.551,1.265-0.66,1.908&#xd;&#xa;&#x9;&#x9;c-2.655,2.012-7.227,4.345-14.207,4.433c-0.197-0.829-0.406-1.761-0.406-2.792c0-0.909,0.259-1.555,0.586-2.372&#xd;&#xa;&#x9;&#x9;c0.314-0.786,0.674-1.679,0.674-2.761c0-1.042-0.32-2.016-0.659-3.044c-0.295-0.897-0.601-1.824-0.601-2.65&#xd;&#xa;&#x9;&#x9;c0-0.234,0.015-0.467,0.046-0.704c5.786-0.064,11.583-1.426,16.085-3.773c0,0.03-0.001,0.058-0.002,0.086&#xd;&#xa;&#x9;&#x9;c-0.016,0.45-0.283,1.208-0.524,1.89C64.151,55.766,63.801,56.755,63.766,57.78z M43.07,70.451&#xd;&#xa;&#x9;&#x9;c-6.178-1.013-10.042-3.436-11.878-4.88c-0.097-0.521-0.246-1.029-0.403-1.564c-0.243-0.829-0.519-1.77-0.571-2.806&#xd;&#xa;&#x9;&#x9;c-0.046-0.852,0.165-1.455,0.432-2.223c0.255-0.729,0.572-1.637,0.517-2.7c-0.053-1.001-0.41-1.937-0.79-2.935&#xd;&#xa;&#x9;&#x9;c-0.234-0.613-0.474-1.241-0.605-1.835c3.683,2.436,8.469,4.116,13.631,4.776c0.1,0.419,0.149,0.755,0.149,1.024&#xd;&#xa;&#x9;&#x9;c0,0.549-0.264,1.376-0.52,2.181c-0.341,1.069-0.693,2.176-0.693,3.304c0,1.175,0.413,2.241,0.812,3.277&#xd;&#xa;&#x9;&#x9;c0.29,0.747,0.588,1.518,0.588,2.065C43.738,68.746,43.395,69.637,43.07,70.451z"/>
  <path stroke-opacity="0.1" fill-opacity="0.1" d="M70.713,53.9c0.542,0,1.028-0.3,1.272-0.785c0.629-1.254,0.968-2.962,0.968-3.932&#xd;&#xa;&#x9;&#x9;c0-0.699-0.139-1.32-0.288-1.987c-0.083-0.37-0.174-0.768-0.239-1.212c-0.012-0.083-0.03-0.165-0.058-0.244&#xd;&#xa;&#x9;&#x9;c1.194-1.945,1.799-4.005,1.799-6.126c0-0.191-0.019-0.38-0.038-0.55l-0.013-0.101c0.016-0.122,0.025-0.244,0.025-0.369&#xd;&#xa;&#x9;&#x9;c0-1.741-0.415-3.458-1.233-5.106c0.107-0.407,0.213-0.911,0.213-1.447c0-1.014,0-3.125-2.937-3.211l-0.121-0.001&#xd;&#xa;&#x9;&#x9;c-0.269,0-0.517,0.023-0.747,0.069c-4.192-3.737-10.893-6.24-18.048-6.74c-0.301-1.232-1.225-1.855-2.819-1.901l-0.129-0.001&#xd;&#xa;&#x9;&#x9;c-1.442,0-2.399,0.675-2.731,1.91c-5.9,0.43-11.57,2.232-15.669,4.979c-0.598-0.378-1.311-0.446-1.832-0.461l-0.128-0.001&#xd;&#xa;&#x9;&#x9;c-1.903,0-2.867,1.072-2.867,3.188c0,0.463,0.101,0.934,0.269,1.513c-1.659,2.23-2.535,4.719-2.535,7.213&#xd;&#xa;&#x9;&#x9;c0,0.192,0.018,0.381,0.039,0.58l0.009,0.084c-0.013,0.118-0.023,0.236-0.023,0.355c0,1.635,0.366,3.25,1.088,4.803&#xd;&#xa;&#x9;&#x9;c-0.367,0.724-0.326,1.522-0.3,2.022c0.037,0.691,0.299,1.411,0.606,2.251c0.281,0.771,0.601,1.64,0.635,2.313&#xd;&#xa;&#x9;&#x9;c0.032,0.577-0.186,1.396-0.397,2.189c-0.267,1-0.543,2.034-0.491,3.061c0.025,0.479,0.131,0.982,0.333,1.569&#xd;&#xa;&#x9;&#x9;c-0.192,0.519-0.322,0.966-0.376,1.299c-0.251,0.951-0.375,1.81-0.377,2.627c-0.005,1.225,0.325,2.478,0.981,3.725&#xd;&#xa;&#x9;&#x9;c-0.039,0.233-0.052,0.444-0.042,0.643c0.098,1.838,1.391,3.14,3.209,3.222c3.864,3.375,9.936,5.773,16.309,6.44&#xd;&#xa;&#x9;&#x9;c0.425,0.334,1.113,0.688,2.119,0.688c0.676,0,1.505,0,2.165-0.488c7.391-0.082,14.448-2.259,18.946-5.84&#xd;&#xa;&#x9;&#x9;c1.36-0.038,2.593-0.433,2.681-2.673c1.614-2.065,2.467-4.38,2.467-6.704c0-0.182-0.017-0.36-0.039-0.555l-0.007-0.027&#xd;&#xa;&#x9;&#x9;c0.013-0.114,0.022-0.23,0.022-0.348c0-1.092-0.183-2.18-0.542-3.232c-0.196-0.576-0.737-0.963-1.347-0.963&#xd;&#xa;&#x9;&#x9;c-0.032,0-0.159,0.01-0.199,0.015c-0.026,0.002-0.052,0.007-0.078,0.012c-0.02-0.068-0.041-0.141-0.063-0.212&#xd;&#xa;&#x9;&#x9;c-0.191-0.654-0.389-1.327-0.444-1.964c0.17,0.171,0.386,0.299,0.629,0.362C70.459,53.884,70.585,53.9,70.713,53.9z M49.03,65.589&#xd;&#xa;&#x9;&#x9;c0.299-0.747,0.639-1.595,0.639-2.585c0-0.964-0.306-1.897-0.635-2.896c-0.307-0.933-0.624-1.897-0.624-2.798&#xd;&#xa;&#x9;&#x9;c0-0.39,0.038-0.771,0.116-1.177c6.146-0.003,12.254-1.473,16.879-4.05c0.053,0.286,0.092,0.588,0.082,0.85&#xd;&#xa;&#x9;&#x9;c-0.018,0.523-0.285,1.281-0.548,2.021c-0.327,0.928-0.667,1.887-0.7,2.843c-0.034,0.997,0.291,1.924,0.607,2.82&#xd;&#xa;&#x9;&#x9;c0.241,0.684,0.489,1.39,0.471,1.923c-0.021,0.615-0.392,1.466-0.722,2.229c-0.31,0.71-0.583,1.334-0.656,1.986&#xd;&#xa;&#x9;&#x9;c-2.775,2.149-7.598,4.644-15.023,4.65l-0.049-0.207c-0.214-0.896-0.458-1.91-0.458-3.062C48.41,67.136,48.696,66.423,49.03,65.589&#xd;&#xa;&#x9;&#x9;z M43.459,70.754c-0.03,0.076-0.06,0.151-0.089,0.225c-6.607-1.007-10.687-3.599-12.615-5.149&#xd;&#xa;&#x9;&#x9;c-0.089-0.558-0.251-1.105-0.422-1.688c-0.25-0.854-0.533-1.823-0.59-2.915c-0.05-0.946,0.185-1.62,0.458-2.401&#xd;&#xa;&#x9;&#x9;c0.253-0.728,0.542-1.551,0.491-2.521c-0.049-0.927-0.391-1.822-0.757-2.784c-0.34-0.89-0.691-1.811-0.735-2.665&#xd;&#xa;&#x9;&#x9;c-0.006-0.109-0.009-0.218-0.009-0.325c3.756,2.739,9.002,4.659,14.588,5.326c0.127,0.466,0.246,0.998,0.246,1.454&#xd;&#xa;&#x9;&#x9;c0,0.622-0.276,1.486-0.542,2.32c-0.331,1.037-0.672,2.107-0.672,3.164c0,1.087,0.396,2.111,0.78,3.104&#xd;&#xa;&#x9;&#x9;c0.305,0.788,0.621,1.603,0.621,2.238C44.212,68.871,43.822,69.846,43.459,70.754z"/>
  <path stroke-opacity="0.15" fill-opacity="0.15" d="M70.466,53.393c0.079,0.023,0.163,0.034,0.247,0.034c0.36,0,0.686-0.2,0.85-0.523&#xd;&#xa;&#x9;&#x9;c0.573-1.146,0.916-2.79,0.916-3.72c0-0.648-0.133-1.248-0.275-1.883c-0.086-0.38-0.179-0.79-0.246-1.248&#xd;&#xa;&#x9;&#x9;c-0.019-0.125-0.061-0.244-0.124-0.35c1.234-1.932,1.86-3.979,1.86-6.089c0-0.175-0.019-0.346-0.037-0.524l-0.01-0.186&#xd;&#xa;&#x9;&#x9;c0.013-0.103,0.021-0.205,0.021-0.309c0-1.725-0.426-3.424-1.266-5.055c0.132-0.469,0.244-0.971,0.244-1.498&#xd;&#xa;&#x9;&#x9;c0-1.349-0.189-2.671-2.468-2.737l-0.115-0.001c-0.326,0-0.617,0.038-0.879,0.115c-4.19-3.844-10.984-6.371-18.313-6.812&#xd;&#xa;&#x9;&#x9;c-0.126-0.955-0.609-1.824-2.427-1.876l-0.124-0.001c-0.958,0-2.101,0.34-2.341,1.885c-6.114,0.387-11.922,2.236-16.073,5.113&#xd;&#xa;&#x9;&#x9;c-0.519-0.471-1.261-0.554-1.823-0.571l-0.123-0.001c-2.394,0-2.394,1.971-2.394,2.713c0,0.48,0.133,0.999,0.318,1.608&#xd;&#xa;&#x9;&#x9;c-1.691,2.197-2.584,4.653-2.584,7.118c0,0.175,0.016,0.347,0.036,0.523l0.015,0.127l-0.006,0.066&#xd;&#xa;&#x9;&#x9;c-0.011,0.1-0.02,0.202-0.02,0.303c0,1.645,0.387,3.266,1.149,4.824c-0.431,0.652-0.388,1.464-0.362,1.977&#xd;&#xa;&#x9;&#x9;c0.033,0.622,0.285,1.311,0.578,2.112c0.293,0.803,0.625,1.709,0.664,2.452c0.035,0.652-0.193,1.506-0.414,2.337&#xd;&#xa;&#x9;&#x9;c-0.257,0.965-0.523,1.963-0.475,2.913c0.025,0.475,0.141,0.987,0.363,1.601c-0.218,0.566-0.359,1.043-0.423,1.414&#xd;&#xa;&#x9;&#x9;c-0.24,0.911-0.358,1.731-0.362,2.508c-0.004,1.194,0.333,2.419,1.003,3.646c-0.055,0.266-0.075,0.49-0.065,0.695&#xd;&#xa;&#x9;&#x9;c0.088,1.66,1.245,2.776,2.879,2.776h0.041c3.824,3.405,9.895,5.808,16.316,6.454c0.376,0.328,0.992,0.669,1.928,0.669&#xd;&#xa;&#x9;&#x9;c0.684,0,1.45,0,1.995-0.484c7.437-0.053,14.489-2.228,18.945-5.84c1.269-0.011,2.308-0.227,2.377-2.241&#xd;&#xa;&#x9;&#x9;c0.001-0.043,0.002-0.085,0.001-0.129c1.613-2.013,2.465-4.269,2.465-6.536c0-0.164-0.016-0.325-0.034-0.491l-0.014-0.097&#xd;&#xa;&#x9;&#x9;l0.005-0.048c0.012-0.098,0.02-0.195,0.02-0.294c0-1.039-0.173-2.075-0.517-3.08c-0.131-0.383-0.491-0.642-0.897-0.642&#xd;&#xa;&#x9;&#x9;c-0.021,0-0.11,0.007-0.132,0.009c-0.171,0.025-0.327,0.094-0.454,0.194c-0.063-0.236-0.134-0.477-0.206-0.718&#xd;&#xa;&#x9;&#x9;c-0.249-0.853-0.509-1.732-0.479-2.58c0.03-0.887,0.257-1.556,0.498-2.267c0.051-0.15,0.102-0.303,0.15-0.457l-0.104,2.14&#xd;&#xa;&#x9;&#x9;C69.746,52.877,70.042,53.283,70.466,53.393z M43.917,70.884c-0.084,0.212-0.167,0.419-0.243,0.619&#xd;&#xa;&#x9;&#x9;c-7.049-0.996-11.343-3.764-13.362-5.423c-0.075-0.584-0.249-1.176-0.433-1.801c-0.258-0.882-0.55-1.879-0.61-3.028&#xd;&#xa;&#x9;&#x9;c-0.055-1.04,0.207-1.789,0.484-2.584c0.251-0.719,0.511-1.462,0.465-2.338c-0.044-0.855-0.375-1.718-0.724-2.636&#xd;&#xa;&#x9;&#x9;c-0.354-0.927-0.72-1.884-0.768-2.813c-0.025-0.465,0.006-0.878,0.062-1.255c3.806,3.037,9.337,5.129,15.361,5.795&#xd;&#xa;&#x9;&#x9;c0.191,0.651,0.35,1.314,0.35,1.89c0,0.694-0.286,1.592-0.564,2.466c-0.319,1.001-0.649,2.037-0.649,3.019&#xd;&#xa;&#x9;&#x9;c0,0.997,0.379,1.981,0.747,2.934c0.321,0.828,0.652,1.687,0.652,2.409C44.686,68.96,44.278,69.982,43.917,70.884z M48.588,65.417&#xd;&#xa;&#x9;&#x9;c0.298-0.743,0.607-1.513,0.607-2.413c0-0.89-0.297-1.791-0.61-2.745c-0.319-0.969-0.649-1.971-0.649-2.949&#xd;&#xa;&#x9;&#x9;c0-0.641,0.096-1.188,0.21-1.654c0.121,0.002,0.241,0.003,0.363,0.003c6.358,0,12.589-1.564,17.216-4.307&#xd;&#xa;&#x9;&#x9;c0.138,0.538,0.254,1.113,0.236,1.597c-0.02,0.599-0.299,1.389-0.574,2.164c-0.316,0.895-0.643,1.819-0.674,2.7&#xd;&#xa;&#x9;&#x9;c-0.031,0.907,0.279,1.792,0.581,2.648c0.255,0.725,0.52,1.474,0.497,2.096c-0.023,0.708-0.414,1.604-0.761,2.401&#xd;&#xa;&#x9;&#x9;c-0.33,0.755-0.614,1.408-0.635,1.987c0,0.019-0.001,0.037-0.001,0.056c-2.855,2.261-7.823,4.879-15.511,4.879&#xd;&#xa;&#x9;&#x9;c-0.117,0-0.23-0.003-0.344-0.008c-0.042-0.183-0.086-0.37-0.133-0.563c-0.221-0.921-0.471-1.966-0.471-3.172&#xd;&#xa;&#x9;&#x9;C47.936,67.043,48.252,66.256,48.588,65.417z"/>
  <path stroke-opacity="0.15" fill-opacity="0.15" d="M70.594,52.937c0.039,0.012,0.08,0.016,0.119,0.016c0.177,0,0.342-0.098,0.425-0.262&#xd;&#xa;&#x9;&#x9;c0.536-1.067,0.868-2.653,0.868-3.507c0-0.597-0.129-1.171-0.266-1.778c-0.088-0.391-0.182-0.812-0.252-1.284&#xd;&#xa;&#x9;&#x9;c-0.024-0.16-0.126-0.291-0.263-0.357c1.311-1.93,1.993-4.019,1.993-6.149c0-0.157-0.016-0.313-0.033-0.467l-0.021-0.177&#xd;&#xa;&#x9;&#x9;c0.001-0.042,0.007-0.083,0.012-0.124c0.01-0.083,0.019-0.167,0.019-0.251c0-1.707-0.438-3.39-1.3-5.003&#xd;&#xa;&#x9;&#x9;c0.14-0.474,0.278-0.999,0.278-1.55c0-1.291-0.144-2.209-2.001-2.263l-0.108-0.001c-0.39,0-0.716,0.062-0.988,0.187&#xd;&#xa;&#x9;&#x9;c-4.188-3.976-11.096-6.535-18.642-6.907c-0.045-1.072-0.34-1.805-1.995-1.853l-0.118-0.001c-1.637,0-1.875,1.064-1.909,1.861&#xd;&#xa;&#x9;&#x9;c-6.399,0.335-12.379,2.25-16.589,5.304c-0.285-0.488-0.835-0.711-1.744-0.737l-0.117-0.001c-1.919,0-1.919,1.456-1.919,2.239&#xd;&#xa;&#x9;&#x9;c0,0.483,0.167,1.052,0.37,1.706c-1.725,2.163-2.636,4.586-2.636,7.021c0,0.157,0.016,0.312,0.033,0.466l0.021,0.178l-0.011,0.125&#xd;&#xa;&#x9;&#x9;c-0.009,0.083-0.018,0.166-0.018,0.25c0,1.667,0.416,3.307,1.235,4.88c-0.519,0.535-0.475,1.363-0.447,1.895&#xd;&#xa;&#x9;&#x9;c0.029,0.551,0.27,1.21,0.549,1.975c0.305,0.834,0.649,1.776,0.692,2.59c0.039,0.729-0.199,1.622-0.429,2.485&#xd;&#xa;&#x9;&#x9;c-0.248,0.93-0.504,1.892-0.459,2.766c0.029,0.545,0.194,1.103,0.408,1.656c-0.028,0.036-0.052,0.077-0.069,0.121&#xd;&#xa;&#x9;&#x9;c-0.213,0.553-0.347,1.004-0.413,1.384c-0.23,0.872-0.343,1.653-0.346,2.388c-0.005,1.163,0.342,2.363,1.032,3.569&#xd;&#xa;&#x9;&#x9;c-0.075,0.309-0.104,0.543-0.094,0.744c0.074,1.413,1.019,2.327,2.405,2.327c0.078,0,0.151-0.001,0.221-0.002&#xd;&#xa;&#x9;&#x9;c3.783,3.443,9.863,5.853,16.342,6.474c0.323,0.326,0.861,0.651,1.722,0.651c0.685,0,1.39,0,1.796-0.483&#xd;&#xa;&#x9;&#x9;c7.496-0.016,14.565-2.193,18.977-5.842c0.021,0.001,0.04,0.002,0.06,0.002c1.326,0,1.957-0.177,2.013-1.783&#xd;&#xa;&#x9;&#x9;c0.002-0.09,0.001-0.183-0.003-0.275c1.615-1.964,2.468-4.163,2.468-6.374c0-0.146-0.015-0.287-0.031-0.431l-0.02-0.148l0.01-0.111&#xd;&#xa;&#x9;&#x9;c0.01-0.079,0.019-0.159,0.019-0.239c0-0.987-0.166-1.971-0.493-2.928c-0.065-0.192-0.248-0.319-0.448-0.319&#xd;&#xa;&#x9;&#x9;c-0.021,0-0.044,0.002-0.066,0.004c-0.225,0.031-0.395,0.22-0.406,0.446l-0.152,3.153c-0.079,0.648-0.509,1.816-1.444,3.209&#xd;&#xa;&#x9;&#x9;c-0.015-0.248-0.021-0.514-0.01-0.791c0.035-1.047,0.371-1.813,0.694-2.556c0.286-0.655,0.557-1.274,0.583-2.001&#xd;&#xa;&#x9;&#x9;c0.024-0.73-0.204-1.503-0.444-2.321c-0.261-0.888-0.53-1.806-0.499-2.729c0.035-0.958,0.282-1.69,0.522-2.399&#xd;&#xa;&#x9;&#x9;c0.204-0.607,0.398-1.181,0.421-1.809c0.014-0.445,0.009-0.791-0.053-1.084c0.314-0.325,0.607-0.657,0.881-0.994l-0.278,5.743&#xd;&#xa;&#x9;&#x9;C70.229,52.68,70.376,52.88,70.594,52.937z M29.862,66.321c-0.053-0.599-0.24-1.234-0.437-1.905&#xd;&#xa;&#x9;&#x9;c-0.265-0.907-0.567-1.935-0.63-3.141c-0.06-1.133,0.229-1.961,0.51-2.765c0.248-0.706,0.48-1.376,0.439-2.157&#xd;&#xa;&#x9;&#x9;c-0.041-0.78-0.358-1.611-0.694-2.491c-0.367-0.961-0.746-1.955-0.798-2.958c-0.045-0.841,0.076-1.52,0.226-2.156&#xd;&#xa;&#x9;&#x9;c3.82,3.327,9.596,5.578,16.033,6.233c0.225,0.732,0.46,1.581,0.46,2.328c0,0.77-0.298,1.704-0.586,2.608&#xd;&#xa;&#x9;&#x9;c-0.308,0.968-0.627,1.97-0.627,2.876c0,0.91,0.364,1.852,0.716,2.762c0.337,0.871,0.685,1.77,0.685,2.581&#xd;&#xa;&#x9;&#x9;c0,0.915-0.426,1.982-0.802,2.924c-0.135,0.338-0.265,0.661-0.367,0.964C36.488,71.044,31.975,68.099,29.862,66.321z&#xd;&#xa;&#x9;&#x9; M27.384,33.225c3.197-4.886,10.936-8.375,20.204-8.593c0.306,0.09,0.644,0.137,0.982,0.137c0.332,0,0.643-0.046,0.908-0.135&#xd;&#xa;&#x9;&#x9;c9.201,0.24,16.887,3.716,20.087,8.567c-3.855-4.597-11.856-7.763-21.082-7.763C39.244,25.438,31.231,28.614,27.384,33.225z&#xd;&#xa;&#x9;&#x9; M26.551,61.326c0.013,0.233-0.005,0.479-0.041,0.722c-0.188-0.513-0.269-0.99-0.236-1.424l-0.018-0.584&#xd;&#xa;&#x9;&#x9;C26.414,60.481,26.53,60.916,26.551,61.326z M66.265,62.573c-0.027,0.799-0.438,1.742-0.801,2.573&#xd;&#xa;&#x9;&#x9;c-0.311,0.713-0.577,1.327-0.595,1.814c-0.002,0.086-0.001,0.173,0.006,0.262c-2.931,2.38-8.041,5.131-15.992,5.131&#xd;&#xa;&#x9;&#x9;c-0.233,0-0.458-0.012-0.684-0.021l-0.046-0.002c-0.059-0.29-0.13-0.593-0.207-0.91c-0.227-0.948-0.484-2.021-0.484-3.284&#xd;&#xa;&#x9;&#x9;c0-1.187,0.349-2.055,0.686-2.895c0.295-0.736,0.573-1.429,0.573-2.238c0-0.813-0.285-1.68-0.586-2.596&#xd;&#xa;&#x9;&#x9;c-0.332-1.007-0.673-2.046-0.673-3.099c0-0.828,0.147-1.512,0.32-2.133c0.241,0.005,0.483,0.008,0.727,0.008&#xd;&#xa;&#x9;&#x9;c6.561,0,12.897-1.659,17.509-4.568c0.211,0.759,0.443,1.611,0.418,2.35c-0.023,0.672-0.316,1.497-0.599,2.295&#xd;&#xa;&#x9;&#x9;c-0.305,0.864-0.622,1.757-0.649,2.569c-0.029,0.818,0.268,1.66,0.554,2.474C66.011,61.07,66.29,61.863,66.265,62.573z"/>
  <linearGradient id="SVGID_1_" y1="74.0957" x1="48.4976" y2="20.73" gradientUnits="userSpaceOnUse" x2="48.4976">
   <stop offset="0" style="stop-color:#6A6A6A"/>
   <stop offset="0.0712" style="stop-color:#CBCBCB"/>
   <stop offset="0.1186" style="stop-color:#D5D5D5"/>
   <stop offset="0.1984" style="stop-color:#EFEFEF"/>
   <stop offset="0.2168" style="stop-color:#F6F6F6"/>
   <stop offset="0.3074" style="stop-color:#CECECE"/>
   <stop offset="0.4045" style="stop-color:#DBDBDB"/>
   <stop offset="0.4412" style="stop-color:#EAEAEA"/>
   <stop offset="0.4906" style="stop-color:#F6F6F6"/>
   <stop offset="0.559" style="stop-color:#FDFDFD"/>
   <stop offset="0.7379" style="stop-color:#FFFFFF"/>
   <stop offset="1" style="stop-color:#EFEFEF"/>
  </linearGradient>
  <path fill="url(#SVGID_1_)" d="M70.933,59.215c0.005-0.11,0.027-0.219,0.027-0.331c0-0.951-0.16-1.877-0.467-2.773l-0.154,3.187&#xd;&#xa;&#x9;&#x9;c-0.119,0.98-0.841,2.623-2.244,4.402c-0.104-0.62-0.182-1.299-0.155-2.058c0.072-2.072,1.228-3.147,1.277-4.557&#xd;&#xa;&#x9;&#x9;c0.048-1.407-1.006-3.182-0.943-5.051c0.067-1.867,0.901-2.965,0.943-4.209c0.019-0.527,0.008-0.915-0.113-1.197&#xd;&#xa;&#x9;&#x9;c2.306-2.311,3.642-5.037,3.642-7.961c0-0.223-0.039-0.441-0.055-0.663c0.005-0.12,0.029-0.237,0.029-0.357&#xd;&#xa;&#x9;&#x9;c0-1.736-0.472-3.403-1.336-4.956c0.168-0.554,0.314-1.065,0.314-1.598c0-1.243-0.09-1.747-1.539-1.789&#xd;&#xa;&#x9;&#x9;c-0.568-0.016-0.916,0.108-1.145,0.313c-4.043-4.011-11.02-6.754-19.056-7.056c0.001-0.015,0.007-0.027,0.007-0.043&#xd;&#xa;&#x9;&#x9;c0-1.242-0.091-1.747-1.54-1.789c-1.447-0.042-1.546,0.77-1.546,1.764c0,0.033,0.012,0.063,0.019,0.095&#xd;&#xa;&#x9;&#x9;c-6.999,0.284-13.196,2.399-17.326,5.611c-0.084-0.703-0.394-1.012-1.508-1.044c-1.45-0.041-1.549,0.77-1.549,1.764&#xd;&#xa;&#x9;&#x9;c0,0.468,0.207,1.109,0.424,1.809c-1.715,2.073-2.69,4.424-2.69,6.918c0,0.224,0.038,0.441,0.054,0.662&#xd;&#xa;&#x9;&#x9;c-0.005,0.12-0.029,0.237-0.029,0.357c0,1.759,0.487,3.446,1.373,5.015c-0.598,0.299-0.627,0.963-0.587,1.735&#xd;&#xa;&#x9;&#x9;c0.056,1.069,1.157,2.957,1.241,4.565c0.084,1.604-0.971,3.65-0.888,5.251c0.084,1.599,1.522,3.422,1.61,5.121&#xd;&#xa;&#x9;&#x9;c0.036,0.684-0.145,1.422-0.367,2.127c-0.618-1.031-0.919-1.995-0.857-2.79l-0.079-2.484c-0.175,0.453-0.32,0.901-0.397,1.333&#xd;&#xa;&#x9;&#x9;c-0.197,0.748-0.328,1.505-0.331,2.269c-0.005,1.153,0.371,2.337,1.066,3.497c-0.083,0.301-0.14,0.573-0.128,0.789&#xd;&#xa;&#x9;&#x9;c0.053,0.994,0.635,1.879,1.932,1.879c0.147,0,0.278-0.002,0.401-0.006c3.463,3.227,9.393,5.863,16.391,6.497&#xd;&#xa;&#x9;&#x9;c0.308,0.382,0.792,0.632,1.492,0.632c0.898,0,1.339-0.05,1.538-0.486c0.061,0,0.121,0.003,0.181,0.003&#xd;&#xa;&#x9;&#x9;c7.813,0,14.718-2.316,18.903-5.859c0.069,0.006,0.134,0.019,0.21,0.019c1.202,0,1.495-0.085,1.538-1.325&#xd;&#xa;&#x9;&#x9;c0.005-0.136-0.003-0.275-0.014-0.417c1.582-1.868,2.479-3.979,2.479-6.216C70.983,59.611,70.946,59.416,70.933,59.215z&#xd;&#xa;&#x9;&#x9; M25.43,38.451c0,0.058,0.006,0.114,0.007,0.172c-0.065-0.433-0.104-0.871-0.104-1.315c0-7.625,9.921-13.833,22.319-14.101&#xd;&#xa;&#x9;&#x9;c0.545,0.177,1.258,0.193,1.75,0.001c12.359,0.294,22.231,6.493,22.231,14.099c0,0.438-0.037,0.87-0.102,1.298&#xd;&#xa;&#x9;&#x9;c0.001-0.052,0.007-0.103,0.007-0.155c0-7.448-10.323-13.488-23.056-13.488C35.752,24.963,25.43,31.003,25.43,38.451z&#xd;&#xa;&#x9;&#x9; M44.325,71.596c-6.737-0.807-11.808-3.309-14.926-5.993c-0.001-0.022,0-0.038-0.001-0.062c-0.069-1.34-0.959-2.951-1.076-5.188&#xd;&#xa;&#x9;&#x9;c-0.118-2.238,1.03-3.4,0.949-4.923c-0.08-1.521-1.387-3.436-1.492-5.449c-0.067-1.271,0.224-2.211,0.431-3.068&#xd;&#xa;&#x9;&#x9;c3.696,3.524,9.692,6.019,16.66,6.673c0.278,0.894,0.577,1.876,0.577,2.774c0,1.682-1.213,3.815-1.213,5.483&#xd;&#xa;&#x9;&#x9;c0,1.669,1.4,3.571,1.4,5.345C45.634,68.696,44.628,70.462,44.325,71.596z M47.756,71.842c-0.2-1.247-0.768-2.725-0.768-4.652&#xd;&#xa;&#x9;&#x9;c0-2.333,1.259-3.547,1.259-5.134s-1.259-3.586-1.259-5.694c0-1.044,0.22-1.876,0.442-2.62c0.358,0.01,0.716,0.021,1.079,0.021&#xd;&#xa;&#x9;&#x9;c7.036,0,13.369-1.866,17.796-4.848c0.242,0.943,0.641,2.09,0.605,3.12c-0.054,1.488-1.197,3.385-1.248,4.865&#xd;&#xa;&#x9;&#x9;c-0.053,1.479,1.132,3.168,1.077,4.742c-0.056,1.573-1.364,3.471-1.396,4.39c-0.005,0.149,0.008,0.295,0.03,0.436&#xd;&#xa;&#x9;&#x9;c-3.444,2.875-8.796,5.413-16.491,5.413C48.497,71.88,48.133,71.853,47.756,71.842z"/>
  <linearGradient id="SVGID_2_" y1="51.5303" x1="71.1221" y2="45.2432" gradientUnits="userSpaceOnUse" x2="71.1221">
   <stop offset="0" style="stop-color:#6A6A6A"/>
   <stop offset="0.0712" style="stop-color:#CBCBCB"/>
   <stop offset="0.1186" style="stop-color:#D5D5D5"/>
   <stop offset="0.1984" style="stop-color:#EFEFEF"/>
   <stop offset="0.2168" style="stop-color:#F6F6F6"/>
   <stop offset="0.3074" style="stop-color:#CECECE"/>
   <stop offset="0.4045" style="stop-color:#DBDBDB"/>
   <stop offset="0.4412" style="stop-color:#EAEAEA"/>
   <stop offset="0.4906" style="stop-color:#F6F6F6"/>
   <stop offset="0.559" style="stop-color:#FDFDFD"/>
   <stop offset="0.7379" style="stop-color:#FFFFFF"/>
   <stop offset="1" style="stop-color:#EFEFEF"/>
  </linearGradient>
  <path fill="url(#SVGID_2_)" d="M70.713,51.53c0.516-1.028,0.818-2.526,0.818-3.297c0-0.906-0.332-1.781-0.512-2.99L70.713,51.53z"/>
 </g>
 <g id="_DO_NOT_EDIT_-_HIGHLIGHTS">
  <linearGradient id="HIGHLIGHT_RIM_1_" y1="0" x1="47.9995" y2="144.6673" gradientUnits="userSpaceOnUse" x2="47.9995">
   <stop offset="0" style="stop-color:#FFFFFF"/>
   <stop offset="1" style="stop-color:#000000"/>
  </linearGradient>
  <path fill="url(#HIGHLIGHT_RIM_1_)" fill-opacity="0.25" id="HIGHLIGHT_RIM" d="M48,7.979c-29.635,0-40,10.365-40,40&#xd;&#xa;&#x9;&#x9;c0,29.633,10.365,40,40,40c29.637,0,40-10.367,40-40C88,18.344,77.637,7.979,48,7.979z M48,87.002c-29.159,0-39-9.848-39-39.024&#xd;&#xa;&#x9;&#x9;C9,18.803,18.841,8.956,48,8.956c29.158,0,39,9.847,39,39.022C87,77.154,77.158,87.002,48,87.002z"/>
  <g id="DARK_BEVEL">
   <path fill="#FFFFFF" display="none" fill-opacity="0.05" id="SQUIRCLE" d="M48,87.979c-29.635,0-40-10.367-40-40&#xd;&#xa;&#x9;&#x9;&#x9;c0-29.634,10.365-40,40-40c29.637,0,40,10.365,40,40C88,77.611,77.637,87.979,48,87.979z"/>
   <path stroke-opacity="0.02" fill-opacity="0.02" d="M9.478,64.25C13.244,81.519,24.624,87.979,48,87.979c23.378,0,34.756-6.46,38.522-23.729H9.478z"/>
   <path stroke-opacity="0.02" fill-opacity="0.02" d="M10.242,67.25C14.659,82.271,26.031,87.979,48,87.979c21.971,0,33.342-5.708,37.758-20.729H10.242z"/>
   <path stroke-opacity="0.02" fill-opacity="0.02" d="M11.258,70.25C16.284,83.041,27.555,87.979,48,87.979c20.446,0,31.717-4.938,36.742-17.729H11.258z"/>
   <path stroke-opacity="0.02" fill-opacity="0.02" d="M12.636,73.25C18.211,83.815,29.241,87.979,48,87.979c18.76,0,29.79-4.163,35.365-14.729H12.636z"/>
   <path stroke-opacity="0.02" fill-opacity="0.02" d="M13.797,75.25C19.685,84.348,30.47,87.979,48,87.979c17.531,0,28.316-3.631,34.203-12.729H13.797z"/>
   <path stroke-opacity="0.02" fill-opacity="0.02" d="M15.255,77.25C21.396,84.878,31.821,87.979,48,87.979c16.18,0,26.604-3.101,32.745-10.729H15.255z"/>
   <path fill-opacity="0.02" d="M17.059,79.25c6.305,6.177,16.254,8.729,30.941,8.729c14.688,0,24.638-2.552,30.942-8.729H17.059z"/>
  </g>
  <g id="LIGHT_BEVEL">
   <path stroke-opacity="0.01" fill="#FFFFFF" fill-opacity="0.01" d="M48,8.979c-29.635,0-40,10.365-40,40c0,2.888,0.102,5.588,0.307,8.119l0.219,0.02h78.958&#xd;&#xa;&#x9;&#x9;&#x9;l0.21-0.019c0.205-2.531,0.307-5.23,0.307-8.12C88,19.344,77.637,8.979,48,8.979z"/>
   <path stroke-opacity="0.01" fill="#FFFFFF" fill-opacity="0.01" d="M48,7.979c-29.635,0-40,10.365-40,40c0,1.051,0.017,2.073,0.043,3.077l0.701,0.062H87.26&#xd;&#xa;&#x9;&#x9;&#x9;l0.697-0.063C87.983,50.051,88,49.029,88,47.978C88,18.344,77.637,7.979,48,7.979z"/>
   <path stroke-opacity="0.01" fill="#FFFFFF" fill-opacity="0.01" d="M8.965,46.116h78.072l0.941-0.084C87.521,17.897,76.975,7.979,48,7.979&#xd;&#xa;&#x9;&#x9;&#x9;c-28.973,0-39.521,9.919-39.978,38.054L8.965,46.116z"/>
   <path stroke-opacity="0.01" fill="#FFFFFF" fill-opacity="0.01" d="M9.186,41.116h77.628l0.961-0.086C86.147,16.713,75.187,7.979,48,7.979&#xd;&#xa;&#x9;&#x9;&#x9;c-27.185,0-38.147,8.735-39.775,33.053L9.186,41.116z"/>
   <path stroke-opacity="0.01" fill="#FFFFFF" fill-opacity="0.01" d="M9.186,37.116h77.628c0.201,0,0.397-0.036,0.594-0.066&#xd;&#xa;&#x9;&#x9;&#x9;C84.854,15.753,73.648,7.979,48,7.979c-25.646,0-36.854,7.774-39.408,29.072C8.789,37.08,8.984,37.116,9.186,37.116z"/>
   <path stroke-opacity="0.01" fill="#FFFFFF" fill-opacity="0.01" d="M48,7.979c-24.004,0-35.363,6.805-38.814,25.138h77.628&#xd;&#xa;&#x9;&#x9;&#x9;C83.363,14.783,72.006,7.979,48,7.979z"/>
   <path stroke-opacity="0.01" fill="#FFFFFF" fill-opacity="0.01" d="M84.074,29.67l1.6-0.376c0.083-0.02,0.158-0.058,0.239-0.084&#xd;&#xa;&#x9;&#x9;&#x9;C81.605,13.805,70.22,7.979,48,7.979c-22.218,0-33.604,5.827-37.913,21.231c0.081,0.026,0.156,0.064,0.239,0.084l1.599,0.376&#xd;&#xa;&#x9;&#x9;&#x9;c0.226,0.053,0.456,0.08,0.688,0.08h70.773C83.618,29.75,83.849,29.723,84.074,29.67z"/>
   <path stroke-opacity="0.01" fill="#FFFFFF" fill-opacity="0.01" d="M12.613,26.75h70.773l1.6-0.376C80.091,13.093,68.794,7.979,48,7.979&#xd;&#xa;&#x9;&#x9;&#x9;c-20.792,0-32.09,5.115-36.986,18.395L12.613,26.75z"/>
   <path stroke-opacity="0.01" fill="#FFFFFF" fill-opacity="0.01" d="M12.613,24.75h70.773c0.305,0,0.595-0.081,0.86-0.208C78.999,12.621,67.81,7.979,48,7.979&#xd;&#xa;&#x9;&#x9;&#x9;c-19.808,0-30.998,4.643-36.247,16.563C12.019,24.669,12.309,24.75,12.613,24.75z"/>
   <path stroke-opacity="0.01" fill="#FFFFFF" fill-opacity="0.01" d="M83.387,22.75C77.82,12.153,66.786,7.979,48,7.979c-18.785,0-29.819,4.174-35.387,14.771&#xd;&#xa;&#x9;&#x9;&#x9;H83.387z"/>
  </g>
 </g>
 <g id="GUIDES"/>
</svg>
