<?xml version="1.0"?>
<!-- Converted with SVG Converter - Version 0.9.5 (Compiled Mon May 30 09:08:51 2011) - Copyright (C) 2011 Nokia -->
<svg xmlns="http://www.w3.org/2000/svg" width="96px" x="0px" version="1.0" y="0px" height="96px" viewBox="0 0 96 96" xmlns:xlink="http://www.w3.org/1999/xlink" baseProfile="tiny" xml:space="preserve">
 <g id="DO_NOT_EDIT_-_BOUNDING_BOX">
  <rect width="96" fill="none" height="96" id="BOUNDING_BOX"/>
 </g>
 <g id="DO_NOT_EDIT_-_SHADOW">
  <path stroke-opacity="0.4" fill-opacity="0.4" id="SHADOW" d="M88.023,49c0,29.633-10.364,40-40,40c-29.635,0-40-10.367-40-40c0-29.634,10.366-40,40-40&#xd;&#xa;&#x9;&#x9;C77.659,9,88.023,19.365,88.023,49z"/>
 </g>
 <g id="TURQUOISE">
  <linearGradient id="GRAY_2_1_" y1="8.0107" x1="47.9995" y2="87.9897" gradientUnits="userSpaceOnUse" x2="47.9995">
   <stop offset="0.0364" style="stop-color:#09A3BA"/>
   <stop offset="0.1668" style="stop-color:#0999B0"/>
   <stop offset="0.3874" style="stop-color:#0B7F96"/>
   <stop offset="0.6711" style="stop-color:#0C556A"/>
   <stop offset="1" style="stop-color:#0F1C30"/>
  </linearGradient>
  <path fill="url(#GRAY_2_1_)" fill-rule="evenodd" id="GRAY_2" d="M8,47.989c0,29.633,10.365,40,40,40&#xd;&#xa;&#x9;&#x9;c29.637,0,40-10.367,40-40c0-28.985-9.926-39.53-38.091-39.979h-3.817C17.928,8.459,8,19.004,8,47.989z"/>
  <linearGradient id="HIGHLIGHT_GRA2_1_" y1="8" x1="47.9995" y2="88.0005" gradientUnits="userSpaceOnUse" x2="47.9995">
   <stop offset="0.0364" style="stop-color:#F2F2F2"/>
   <stop offset="0.1217" style="stop-color:#E8E8E8"/>
   <stop offset="0.266" style="stop-color:#CECECE"/>
   <stop offset="0.4519" style="stop-color:#A2A2A2"/>
   <stop offset="0.672" style="stop-color:#666666"/>
   <stop offset="0.9184" style="stop-color:#1B1B1B"/>
   <stop offset="1" style="stop-color:#000000"/>
  </linearGradient>
  <path stroke-opacity="0.4" fill="url(#HIGHLIGHT_GRA2_1_)" fill-opacity="0.4" id="HIGHLIGHT_GRA2" d="M48,8C18.365,8,8,18.365,8,48c0,29.633,10.365,40,40,40&#xd;&#xa;&#x9;&#x9;c29.637,0,40-10.367,40-40C88,18.365,77.637,8,48,8z M48,87.023C18.842,87.023,9,77.176,9,48S18.842,8.977,48,8.977&#xd;&#xa;&#x9;&#x9;S87,18.824,87,48S77.158,87.023,48,87.023z"/>
 </g>
 <g id="DRUMKIT_ICON">
  <path stroke-opacity="0.05" fill-opacity="0.05" d="M74.167,53.824c0.731-1.459,1.126-3.456,1.126-4.596c0-0.849-0.163-1.579-0.341-2.372&#xd;&#xa;&#x9;&#x9;c-0.074-0.33-0.154-0.682-0.216-1.085c1.219-2.109,1.837-4.34,1.837-6.636c0-0.222-0.019-0.441-0.047-0.69&#xd;&#xa;&#x9;&#x9;c0.013-0.128,0.021-0.256,0.021-0.385c0-1.874-0.419-3.722-1.245-5.497c0.113-0.506,0.168-0.971,0.168-1.416&#xd;&#xa;&#x9;&#x9;c0-2.832-1.372-4.308-4.086-4.387l-0.139-0.001c-0.165,0-0.322,0.006-0.475,0.02c-4.435-3.772-11.355-6.375-18.622-7.003&#xd;&#xa;&#x9;&#x9;c-0.443-0.964-1.443-1.994-3.691-2.059l-0.146-0.001c-1.709,0-2.975,0.732-3.598,2.07c-5.886,0.524-11.639,2.353-15.877,5.046&#xd;&#xa;&#x9;&#x9;c-0.682-0.271-1.369-0.323-1.854-0.336l-0.146-0.001c-2.558,0-4.024,1.59-4.024,4.362c0,0.513,0.094,1,0.194,1.399&#xd;&#xa;&#x9;&#x9;c-1.691,2.422-2.584,5.116-2.584,7.806c0,0.211,0.016,0.419,0.045,0.702c-0.012,0.124-0.019,0.248-0.019,0.373&#xd;&#xa;&#x9;&#x9;c0,1.727,0.356,3.434,1.059,5.079c-0.293,0.844-0.252,1.664-0.227,2.173c0.046,0.876,0.349,1.704,0.701,2.671&#xd;&#xa;&#x9;&#x9;c0.272,0.743,0.58,1.584,0.609,2.146c0.024,0.446-0.192,1.264-0.388,2.001c-0.301,1.127-0.612,2.293-0.549,3.534&#xd;&#xa;&#x9;&#x9;c0.028,0.511,0.122,1.019,0.293,1.586c-0.157,0.46-0.269,0.87-0.308,1.131c-0.287,1.087-0.428,2.075-0.432,3.022&#xd;&#xa;&#x9;&#x9;c-0.005,1.36,0.333,2.743,1.004,4.111c-0.018,0.19-0.021,0.372-0.013,0.552c0.123,2.3,1.749,4.052,3.979,4.315&#xd;&#xa;&#x9;&#x9;c4.162,3.514,10.583,6.043,17.236,6.789c0.541,0.362,1.405,0.759,2.606,0.759c0.72,0,1.695,0,2.586-0.518&#xd;&#xa;&#x9;&#x9;c7.734-0.142,15.205-2.442,20.048-6.174c2.099-0.158,3.254-1.313,3.439-3.436c1.717-2.293,2.623-4.861,2.623-7.438&#xd;&#xa;&#x9;&#x9;c0-0.211-0.017-0.418-0.041-0.641c0.01-0.112,0.017-0.226,0.017-0.341c0-1.263-0.211-2.519-0.625-3.731&#xd;&#xa;&#x9;&#x9;c-0.26-0.76-0.873-1.341-1.618-1.578C73.184,54.997,73.816,54.519,74.167,53.824z M64.892,55c-0.368,1.044-0.749,2.123-0.79,3.279&#xd;&#xa;&#x9;&#x9;c-0.042,1.238,0.334,2.307,0.701,3.354c0.211,0.599,0.45,1.277,0.436,1.652c-0.015,0.454-0.385,1.307-0.686,1.999&#xd;&#xa;&#x9;&#x9;c-0.281,0.647-0.549,1.262-0.689,1.922c-2.66,1.974-7.224,4.28-14.135,4.451c-0.179-0.784-0.323-1.573-0.323-2.437&#xd;&#xa;&#x9;&#x9;s0.244-1.473,0.582-2.317c0.35-0.872,0.746-1.86,0.746-3.098c0-1.179-0.35-2.241-0.723-3.375c-0.298-0.905-0.605-1.842-0.605-2.631&#xd;&#xa;&#x9;&#x9;c0-0.084,0.002-0.167,0.006-0.251c5.607-0.124,11.291-1.411,15.826-3.573C65.137,54.308,65.008,54.672,64.892,55z M42.457,71.101&#xd;&#xa;&#x9;&#x9;c-6.071-1.069-9.917-3.449-11.759-4.867c-0.105-0.508-0.249-0.997-0.402-1.517c-0.248-0.847-0.528-1.806-0.581-2.84&#xd;&#xa;&#x9;&#x9;c-0.043-0.798,0.154-1.364,0.429-2.152c0.283-0.811,0.635-1.82,0.572-3.038c-0.061-1.136-0.452-2.162-0.865-3.248&#xd;&#xa;&#x9;&#x9;c-0.079-0.207-0.159-0.417-0.236-0.626c3.677,2.166,8.262,3.695,13.094,4.356c0.048,0.249,0.072,0.461,0.072,0.631&#xd;&#xa;&#x9;&#x9;c0,0.5-0.279,1.375-0.525,2.148c-0.371,1.164-0.754,2.368-0.754,3.636c0,1.331,0.452,2.502,0.89,3.638&#xd;&#xa;&#x9;&#x9;c0.275,0.71,0.586,1.514,0.586,1.999C42.977,69.697,42.702,70.47,42.457,71.101z"/>
  <path stroke-opacity="0.07" fill-opacity="0.07" d="M73.72,53.601c0.697-1.391,1.073-3.291,1.073-4.372c0-0.792-0.153-1.479-0.324-2.242&#xd;&#xa;&#x9;&#x9;c-0.083-0.368-0.173-0.764-0.237-1.209c-0.006-0.035-0.012-0.068-0.019-0.102c1.234-2.077,1.86-4.276,1.86-6.54&#xd;&#xa;&#x9;&#x9;c0-0.222-0.021-0.44-0.044-0.645l-0.006-0.044c0.015-0.128,0.023-0.257,0.023-0.387c0-1.855-0.428-3.685-1.271-5.44&#xd;&#xa;&#x9;&#x9;c0.094-0.384,0.194-0.903,0.194-1.472c0-1.034,0-3.782-3.592-3.887l-0.133-0.001c-0.225,0-0.435,0.013-0.636,0.041&#xd;&#xa;&#x9;&#x9;c-4.427-3.85-11.414-6.469-18.808-7.051c-0.46-1.298-1.582-1.981-3.35-2.032l-0.141-0.001c-1.621,0-2.763,0.722-3.254,2.042&#xd;&#xa;&#x9;&#x9;c-6.041,0.491-11.899,2.353-16.177,5.139c-0.669-0.328-1.389-0.388-1.904-0.402l-0.141-0.001c-2.273,0-3.524,1.372-3.524,3.862&#xd;&#xa;&#x9;&#x9;c0,0.517,0.107,1.021,0.237,1.498c-1.719,2.387-2.627,5.046-2.627,7.707c0,0.208,0.018,0.413,0.048,0.701&#xd;&#xa;&#x9;&#x9;c-0.013,0.124-0.021,0.249-0.021,0.375c0,1.723,0.369,3.426,1.098,5.065c-0.335,0.813-0.292,1.643-0.267,2.16&#xd;&#xa;&#x9;&#x9;c0.042,0.803,0.333,1.597,0.67,2.523c0.284,0.777,0.606,1.657,0.64,2.294c0.029,0.528-0.19,1.352-0.403,2.152&#xd;&#xa;&#x9;&#x9;c-0.292,1.092-0.593,2.22-0.534,3.384c0.027,0.509,0.129,1.028,0.321,1.621c-0.179,0.502-0.302,0.943-0.351,1.25&#xd;&#xa;&#x9;&#x9;c-0.276,1.045-0.412,1.992-0.415,2.896c-0.005,1.326,0.337,2.677,1.017,4.018c-0.027,0.217-0.036,0.42-0.026,0.617&#xd;&#xa;&#x9;&#x9;c0.113,2.121,1.618,3.686,3.685,3.86c4.119,3.533,10.528,6.062,17.212,6.787c0.496,0.357,1.292,0.742,2.425,0.742&#xd;&#xa;&#x9;&#x9;c0.699,0,1.641,0,2.441-0.516c7.761-0.116,15.215-2.414,20.008-6.165c1.318-0.066,2.969-0.515,3.137-3.131&#xd;&#xa;&#x9;&#x9;c1.708-2.235,2.61-4.74,2.61-7.253c0-0.209-0.019-0.414-0.044-0.637c0.012-0.113,0.02-0.229,0.02-0.345&#xd;&#xa;&#x9;&#x9;c0-1.206-0.201-2.408-0.599-3.57c-0.269-0.787-0.994-1.323-1.819-1.354c-0.085-0.29-0.169-0.583-0.238-0.872&#xd;&#xa;&#x9;&#x9;c0.129,0.026,0.262,0.04,0.396,0.04C72.691,54.704,73.376,54.281,73.72,53.601z M64.602,58.296&#xd;&#xa;&#x9;&#x9;c-0.039,1.147,0.321,2.17,0.671,3.165c0.237,0.674,0.483,1.371,0.466,1.84c-0.018,0.55-0.388,1.402-0.724,2.176&#xd;&#xa;&#x9;&#x9;c-0.298,0.685-0.581,1.334-0.696,2.014c-2.8,2.121-7.622,4.582-14.984,4.675c-0.209-0.875-0.429-1.857-0.429-2.944&#xd;&#xa;&#x9;&#x9;c0-0.96,0.272-1.641,0.617-2.502c0.333-0.83,0.711-1.771,0.711-2.913c0-1.099-0.338-2.125-0.695-3.211&#xd;&#xa;&#x9;&#x9;c-0.311-0.945-0.633-1.924-0.633-2.795c0-0.247,0.016-0.493,0.048-0.743c6.103-0.067,12.218-1.504,16.966-3.979&#xd;&#xa;&#x9;&#x9;c0,0.031-0.001,0.061-0.002,0.09c-0.016,0.476-0.299,1.275-0.553,1.994C65.009,56.171,64.64,57.215,64.602,58.296z M42.772,71.661&#xd;&#xa;&#x9;&#x9;c-6.517-1.068-10.591-3.623-12.529-5.147c-0.102-0.55-0.259-1.085-0.425-1.649c-0.256-0.875-0.546-1.866-0.603-2.96&#xd;&#xa;&#x9;&#x9;c-0.048-0.898,0.174-1.534,0.456-2.344c0.269-0.77,0.603-1.728,0.545-2.848c-0.056-1.057-0.432-2.044-0.833-3.096&#xd;&#xa;&#x9;&#x9;c-0.247-0.647-0.5-1.31-0.638-1.937c3.885,2.569,8.933,4.343,14.377,5.039c0.106,0.441,0.158,0.796,0.158,1.08&#xd;&#xa;&#x9;&#x9;c0,0.578-0.278,1.451-0.549,2.3C42.372,61.228,42,62.395,42,63.584c0,1.239,0.435,2.365,0.856,3.457&#xd;&#xa;&#x9;&#x9;c0.305,0.788,0.62,1.602,0.62,2.18C43.477,69.862,43.115,70.803,42.772,71.661z"/>
  <path stroke-opacity="0.1" fill-opacity="0.1" d="M71.931,54.204c0.57,0,1.084-0.316,1.342-0.828c0.663-1.322,1.021-3.124,1.021-4.147&#xd;&#xa;&#x9;&#x9;c0-0.737-0.146-1.393-0.304-2.096c-0.088-0.39-0.184-0.81-0.252-1.278c-0.014-0.088-0.033-0.173-0.062-0.256&#xd;&#xa;&#x9;&#x9;c1.26-2.052,1.897-4.225,1.897-6.462c0-0.202-0.02-0.401-0.04-0.581l-0.014-0.106c0.017-0.129,0.027-0.258,0.027-0.389&#xd;&#xa;&#x9;&#x9;c0-1.837-0.438-3.648-1.302-5.386c0.113-0.429,0.225-0.961,0.225-1.527c0-1.07,0-3.296-3.098-3.387l-0.127-0.001&#xd;&#xa;&#x9;&#x9;c-0.284,0-0.545,0.024-0.788,0.073c-4.422-3.942-11.489-6.582-19.036-7.11c-0.317-1.3-1.293-1.957-2.974-2.005l-0.136-0.001&#xd;&#xa;&#x9;&#x9;c-1.521,0-2.53,0.711-2.88,2.015c-6.223,0.453-12.204,2.354-16.528,5.251c-0.631-0.399-1.382-0.471-1.932-0.487l-0.135-0.001&#xd;&#xa;&#x9;&#x9;c-2.007,0-3.024,1.131-3.024,3.362c0,0.489,0.107,0.985,0.284,1.597c-1.75,2.352-2.674,4.978-2.674,7.608&#xd;&#xa;&#x9;&#x9;c0,0.202,0.019,0.401,0.042,0.611l0.009,0.089c-0.014,0.125-0.024,0.249-0.024,0.375c0,1.725,0.386,3.428,1.147,5.066&#xd;&#xa;&#x9;&#x9;c-0.387,0.764-0.343,1.605-0.316,2.133c0.039,0.729,0.316,1.488,0.639,2.375c0.297,0.812,0.633,1.73,0.67,2.441&#xd;&#xa;&#x9;&#x9;c0.033,0.608-0.196,1.471-0.419,2.309c-0.282,1.055-0.573,2.146-0.518,3.229c0.027,0.506,0.139,1.036,0.351,1.655&#xd;&#xa;&#x9;&#x9;c-0.203,0.547-0.339,1.019-0.397,1.37c-0.265,1.003-0.395,1.909-0.398,2.771c-0.005,1.292,0.343,2.613,1.035,3.929&#xd;&#xa;&#x9;&#x9;c-0.041,0.246-0.055,0.469-0.045,0.678c0.103,1.938,1.468,3.312,3.385,3.398c4.076,3.56,10.48,6.089,17.202,6.793&#xd;&#xa;&#x9;&#x9;c0.449,0.353,1.174,0.725,2.235,0.725c0.713,0,1.587,0,2.283-0.514c7.796-0.088,15.239-2.383,19.984-6.16&#xd;&#xa;&#x9;&#x9;c1.435-0.041,2.733-0.457,2.827-2.819c1.702-2.179,2.602-4.62,2.602-7.071c0-0.192-0.018-0.381-0.041-0.585l-0.008-0.029&#xd;&#xa;&#x9;&#x9;c0.014-0.121,0.024-0.243,0.024-0.367c0-1.151-0.192-2.298-0.572-3.409c-0.207-0.607-0.777-1.016-1.42-1.016&#xd;&#xa;&#x9;&#x9;c-0.034,0-0.168,0.01-0.21,0.015c-0.027,0.004-0.055,0.009-0.082,0.014c-0.021-0.073-0.044-0.148-0.066-0.224&#xd;&#xa;&#x9;&#x9;c-0.202-0.69-0.41-1.399-0.469-2.072c0.18,0.181,0.407,0.316,0.663,0.383C71.662,54.187,71.795,54.204,71.931,54.204z&#xd;&#xa;&#x9;&#x9; M49.059,66.533c0.316-0.789,0.675-1.683,0.675-2.728c0-1.017-0.323-2.001-0.67-3.055c-0.324-0.983-0.658-2.001-0.658-2.951&#xd;&#xa;&#x9;&#x9;c0-0.411,0.04-0.813,0.123-1.241c6.484-0.003,12.924-1.554,17.803-4.271c0.057,0.302,0.098,0.62,0.087,0.896&#xd;&#xa;&#x9;&#x9;c-0.019,0.552-0.301,1.351-0.577,2.132c-0.346,0.979-0.704,1.989-0.739,2.998c-0.036,1.052,0.308,2.029,0.641,2.976&#xd;&#xa;&#x9;&#x9;c0.254,0.721,0.517,1.465,0.496,2.028c-0.021,0.648-0.412,1.546-0.761,2.35c-0.327,0.75-0.615,1.408-0.692,2.096&#xd;&#xa;&#x9;&#x9;c-2.928,2.267-8.014,4.897-15.846,4.905l-0.051-0.219c-0.227-0.944-0.483-2.015-0.483-3.229&#xd;&#xa;&#x9;&#x9;C48.405,68.164,48.707,67.412,49.059,66.533z M43.183,71.981c-0.032,0.079-0.063,0.158-0.094,0.236&#xd;&#xa;&#x9;&#x9;c-6.969-1.063-11.271-3.796-13.306-5.432c-0.094-0.588-0.265-1.167-0.445-1.781c-0.264-0.901-0.563-1.923-0.622-3.074&#xd;&#xa;&#x9;&#x9;c-0.053-0.998,0.195-1.709,0.483-2.533c0.268-0.767,0.571-1.636,0.518-2.658c-0.052-0.978-0.412-1.923-0.798-2.937&#xd;&#xa;&#x9;&#x9;c-0.358-0.939-0.729-1.91-0.776-2.812c-0.006-0.115-0.009-0.229-0.009-0.344c3.961,2.89,9.495,4.915,15.387,5.618&#xd;&#xa;&#x9;&#x9;c0.134,0.491,0.259,1.054,0.259,1.534c0,0.656-0.291,1.567-0.571,2.448c-0.348,1.093-0.708,2.223-0.708,3.336&#xd;&#xa;&#x9;&#x9;c0,1.146,0.418,2.229,0.822,3.275c0.322,0.831,0.654,1.689,0.654,2.361C43.977,69.994,43.565,71.023,43.183,71.981z"/>
  <path stroke-opacity="0.15" fill-opacity="0.15" d="M71.669,53.669c0.084,0.023,0.172,0.035,0.262,0.035c0.38,0,0.723-0.211,0.895-0.552&#xd;&#xa;&#x9;&#x9;c0.605-1.208,0.968-2.943,0.968-3.924c0-0.684-0.142-1.316-0.291-1.985c-0.091-0.401-0.188-0.833-0.26-1.316&#xd;&#xa;&#x9;&#x9;c-0.02-0.133-0.064-0.257-0.131-0.369c1.302-2.038,1.962-4.196,1.962-6.422c0-0.184-0.019-0.365-0.039-0.553l-0.011-0.196&#xd;&#xa;&#x9;&#x9;c0.014-0.108,0.023-0.216,0.023-0.326c0-1.82-0.449-3.612-1.335-5.332c0.14-0.495,0.258-1.024,0.258-1.581&#xd;&#xa;&#x9;&#x9;c0-1.422-0.2-2.817-2.604-2.887l-0.121-0.001c-0.345,0-0.651,0.04-0.927,0.122c-4.42-4.055-11.587-6.72-19.317-7.185&#xd;&#xa;&#x9;&#x9;c-0.132-1.006-0.643-1.923-2.56-1.979l-0.13-0.001c-1.011,0-2.216,0.359-2.47,1.988c-6.449,0.408-12.575,2.358-16.953,5.393&#xd;&#xa;&#x9;&#x9;c-0.548-0.497-1.33-0.584-1.923-0.602l-0.129-0.001c-2.524,0-2.524,2.079-2.524,2.862c0,0.507,0.141,1.054,0.335,1.697&#xd;&#xa;&#x9;&#x9;c-1.784,2.317-2.726,4.908-2.726,7.508c0,0.184,0.018,0.365,0.038,0.551l0.016,0.135l-0.006,0.069&#xd;&#xa;&#x9;&#x9;c-0.012,0.106-0.021,0.212-0.021,0.32c0,1.735,0.408,3.445,1.212,5.088c-0.454,0.688-0.409,1.544-0.381,2.084&#xd;&#xa;&#x9;&#x9;c0.035,0.656,0.301,1.383,0.609,2.229c0.309,0.846,0.659,1.802,0.7,2.586c0.037,0.688-0.203,1.589-0.436,2.465&#xd;&#xa;&#x9;&#x9;c-0.271,1.018-0.552,2.07-0.501,3.073c0.026,0.5,0.149,1.041,0.383,1.688c-0.23,0.598-0.379,1.1-0.446,1.492&#xd;&#xa;&#x9;&#x9;c-0.253,0.961-0.378,1.825-0.382,2.645c-0.005,1.26,0.351,2.552,1.059,3.845c-0.058,0.281-0.08,0.518-0.069,0.733&#xd;&#xa;&#x9;&#x9;c0.093,1.752,1.313,2.929,3.037,2.929h0.043c4.033,3.592,10.437,6.126,17.209,6.808c0.397,0.347,1.046,0.706,2.033,0.706&#xd;&#xa;&#x9;&#x9;c0.721,0,1.53,0,2.105-0.512c7.843-0.056,15.283-2.349,19.983-6.159c1.338-0.012,2.434-0.238,2.508-2.364&#xd;&#xa;&#x9;&#x9;c0.001-0.045,0.002-0.09,0.001-0.135c1.701-2.124,2.6-4.504,2.6-6.895c0-0.173-0.017-0.343-0.037-0.519l-0.014-0.103l0.005-0.05&#xd;&#xa;&#x9;&#x9;c0.012-0.103,0.021-0.206,0.021-0.311c0-1.096-0.184-2.188-0.546-3.248c-0.138-0.404-0.518-0.677-0.946-0.677&#xd;&#xa;&#x9;&#x9;c-0.023,0-0.116,0.007-0.14,0.01c-0.18,0.025-0.344,0.098-0.479,0.204c-0.066-0.249-0.141-0.502-0.217-0.758&#xd;&#xa;&#x9;&#x9;c-0.264-0.898-0.537-1.826-0.506-2.721c0.033-0.936,0.271-1.641,0.525-2.391c0.054-0.159,0.107-0.319,0.159-0.482l-0.109,2.258&#xd;&#xa;&#x9;&#x9;C70.909,53.125,71.223,53.553,71.669,53.669z M43.667,72.118c-0.089,0.224-0.177,0.441-0.256,0.652&#xd;&#xa;&#x9;&#x9;c-7.435-1.051-11.964-3.969-14.094-5.72c-0.08-0.616-0.263-1.24-0.457-1.899c-0.272-0.93-0.581-1.982-0.644-3.194&#xd;&#xa;&#x9;&#x9;c-0.058-1.097,0.218-1.887,0.51-2.725c0.265-0.759,0.539-1.543,0.491-2.467c-0.047-0.902-0.395-1.813-0.764-2.78&#xd;&#xa;&#x9;&#x9;c-0.373-0.977-0.759-1.986-0.81-2.968c-0.026-0.49,0.006-0.926,0.065-1.323c4.015,3.204,9.849,5.41,16.202,6.112&#xd;&#xa;&#x9;&#x9;c0.202,0.688,0.369,1.387,0.369,1.993c0,0.732-0.301,1.68-0.595,2.601C43.349,61.457,43,62.55,43,63.584&#xd;&#xa;&#x9;&#x9;c0,1.053,0.4,2.09,0.789,3.095c0.338,0.874,0.688,1.779,0.688,2.542C44.477,70.089,44.047,71.167,43.667,72.118z M48.593,66.352&#xd;&#xa;&#x9;&#x9;c0.314-0.784,0.641-1.596,0.641-2.546c0-0.938-0.313-1.889-0.644-2.895c-0.336-1.022-0.685-2.079-0.685-3.111&#xd;&#xa;&#x9;&#x9;c0-0.676,0.101-1.252,0.222-1.744c0.127,0.002,0.254,0.003,0.382,0.003c6.707,0,13.279-1.65,18.16-4.543&#xd;&#xa;&#x9;&#x9;c0.145,0.567,0.268,1.174,0.249,1.685c-0.021,0.631-0.316,1.464-0.605,2.282c-0.334,0.943-0.679,1.919-0.711,2.849&#xd;&#xa;&#x9;&#x9;c-0.033,0.957,0.295,1.89,0.612,2.792c0.27,0.765,0.548,1.555,0.524,2.211c-0.025,0.747-0.438,1.692-0.803,2.533&#xd;&#xa;&#x9;&#x9;c-0.348,0.797-0.647,1.485-0.669,2.097c0,0.02-0.001,0.038-0.001,0.058c-3.012,2.385-8.252,5.146-16.361,5.146&#xd;&#xa;&#x9;&#x9;c-0.123,0-0.244-0.003-0.363-0.008c-0.043-0.192-0.091-0.391-0.14-0.595c-0.233-0.972-0.497-2.073-0.497-3.345&#xd;&#xa;&#x9;&#x9;C47.905,68.066,48.239,67.235,48.593,66.352z"/>
  <path stroke-opacity="0.15" fill-opacity="0.15" d="M71.804,53.188c0.042,0.012,0.085,0.017,0.127,0.017c0.186,0,0.36-0.104,0.447-0.276&#xd;&#xa;&#x9;&#x9;c0.565-1.127,0.915-2.798,0.915-3.699c0-0.629-0.136-1.235-0.279-1.875c-0.093-0.413-0.192-0.856-0.267-1.354&#xd;&#xa;&#x9;&#x9;c-0.024-0.169-0.132-0.307-0.276-0.377c1.383-2.036,2.103-4.239,2.103-6.486c0-0.166-0.018-0.33-0.035-0.493l-0.022-0.186&#xd;&#xa;&#x9;&#x9;c0.001-0.044,0.007-0.087,0.012-0.131c0.011-0.088,0.02-0.176,0.02-0.265c0-1.801-0.461-3.576-1.371-5.278&#xd;&#xa;&#x9;&#x9;c0.148-0.5,0.294-1.054,0.294-1.635c0-1.362-0.151-2.33-2.11-2.387l-0.114-0.001c-0.411,0-0.756,0.065-1.042,0.198&#xd;&#xa;&#x9;&#x9;c-4.419-4.193-11.704-6.894-19.664-7.286c-0.047-1.13-0.358-1.904-2.104-1.954l-0.125-0.001c-1.727,0-1.978,1.122-2.014,1.963&#xd;&#xa;&#x9;&#x9;c-6.749,0.354-13.057,2.374-17.498,5.594c-0.3-0.515-0.881-0.75-1.84-0.778l-0.124-0.001c-2.024,0-2.024,1.536-2.024,2.362&#xd;&#xa;&#x9;&#x9;c0,0.509,0.176,1.11,0.39,1.8c-1.82,2.282-2.78,4.837-2.78,7.405c0,0.166,0.017,0.329,0.035,0.492l0.022,0.188l-0.012,0.132&#xd;&#xa;&#x9;&#x9;c-0.01,0.087-0.019,0.175-0.019,0.264c0,1.758,0.438,3.488,1.302,5.148c-0.547,0.564-0.501,1.438-0.472,1.998&#xd;&#xa;&#x9;&#x9;c0.031,0.581,0.285,1.277,0.58,2.083c0.321,0.88,0.685,1.874,0.729,2.732c0.041,0.769-0.21,1.71-0.452,2.62&#xd;&#xa;&#x9;&#x9;c-0.262,0.981-0.532,1.996-0.484,2.918c0.03,0.575,0.205,1.163,0.43,1.747c-0.03,0.038-0.055,0.081-0.073,0.128&#xd;&#xa;&#x9;&#x9;c-0.225,0.582-0.366,1.059-0.436,1.459c-0.243,0.92-0.362,1.744-0.365,2.519c-0.005,1.228,0.361,2.493,1.088,3.766&#xd;&#xa;&#x9;&#x9;c-0.079,0.324-0.11,0.571-0.099,0.784c0.079,1.491,1.075,2.455,2.537,2.455c0.082,0,0.159-0.001,0.233-0.002&#xd;&#xa;&#x9;&#x9;c3.99,3.632,10.403,6.173,17.237,6.828c0.34,0.344,0.908,0.688,1.815,0.688c0.723,0,1.466,0,1.894-0.511&#xd;&#xa;&#x9;&#x9;c7.907-0.016,15.364-2.313,20.017-6.162c0.021,0.001,0.041,0.002,0.063,0.002c1.398,0,2.063-0.186,2.122-1.88&#xd;&#xa;&#x9;&#x9;c0.003-0.096,0.001-0.192-0.003-0.291c1.704-2.071,2.604-4.392,2.604-6.723c0-0.153-0.016-0.304-0.033-0.454l-0.021-0.157&#xd;&#xa;&#x9;&#x9;l0.011-0.117c0.01-0.084,0.019-0.168,0.019-0.253c0-1.041-0.175-2.079-0.52-3.087c-0.069-0.204-0.262-0.338-0.473-0.338&#xd;&#xa;&#x9;&#x9;c-0.022,0-0.047,0.002-0.07,0.005c-0.237,0.033-0.417,0.231-0.429,0.471l-0.16,3.325c-0.084,0.685-0.536,1.916-1.523,3.386&#xd;&#xa;&#x9;&#x9;c-0.016-0.262-0.021-0.542-0.011-0.835c0.038-1.104,0.392-1.912,0.732-2.695c0.302-0.691,0.587-1.344,0.614-2.11&#xd;&#xa;&#x9;&#x9;c0.026-0.771-0.214-1.586-0.468-2.449c-0.275-0.937-0.56-1.904-0.526-2.879c0.036-1.01,0.298-1.783,0.551-2.531&#xd;&#xa;&#x9;&#x9;c0.216-0.64,0.42-1.244,0.443-1.907c0.016-0.47,0.011-0.834-0.055-1.144c0.331-0.343,0.641-0.693,0.929-1.049l-0.294,6.058&#xd;&#xa;&#x9;&#x9;C71.42,52.916,71.575,53.128,71.804,53.188z M28.841,67.306c-0.056-0.632-0.252-1.303-0.46-2.01&#xd;&#xa;&#x9;&#x9;c-0.28-0.957-0.598-2.041-0.665-3.313c-0.063-1.195,0.242-2.069,0.538-2.916c0.261-0.746,0.507-1.451,0.463-2.275&#xd;&#xa;&#x9;&#x9;c-0.043-0.824-0.377-1.7-0.731-2.628c-0.387-1.014-0.787-2.063-0.842-3.12c-0.047-0.887,0.081-1.604,0.239-2.274&#xd;&#xa;&#x9;&#x9;c4.029,3.508,10.122,5.882,16.912,6.575c0.237,0.772,0.486,1.668,0.486,2.455c0,0.812-0.314,1.798-0.618,2.752&#xd;&#xa;&#x9;&#x9;c-0.325,1.021-0.662,2.076-0.662,3.032c0,0.96,0.384,1.953,0.755,2.914c0.355,0.918,0.722,1.866,0.722,2.723&#xd;&#xa;&#x9;&#x9;c0,0.965-0.449,2.09-0.846,3.083c-0.143,0.356-0.279,0.698-0.388,1.017C35.831,72.287,31.07,69.18,28.841,67.306z M26.228,32.396&#xd;&#xa;&#x9;&#x9;c3.373-5.153,11.535-8.834,21.311-9.064c0.323,0.095,0.68,0.145,1.037,0.145c0.35,0,0.678-0.049,0.958-0.143&#xd;&#xa;&#x9;&#x9;c9.705,0.253,17.812,3.919,21.187,9.037c-4.066-4.849-12.506-8.189-22.236-8.189C38.737,24.182,30.285,27.533,26.228,32.396z&#xd;&#xa;&#x9;&#x9; M25.349,62.036c0.013,0.247-0.005,0.505-0.043,0.762c-0.198-0.541-0.283-1.045-0.249-1.502l-0.019-0.616&#xd;&#xa;&#x9;&#x9;C25.205,61.146,25.327,61.604,25.349,62.036z M67.238,63.352c-0.029,0.844-0.463,1.838-0.845,2.715&#xd;&#xa;&#x9;&#x9;c-0.327,0.751-0.609,1.399-0.627,1.914c-0.003,0.09-0.001,0.182,0.006,0.275c-3.092,2.51-8.481,5.412-16.868,5.412&#xd;&#xa;&#x9;&#x9;c-0.247,0-0.484-0.012-0.722-0.022l-0.048-0.002c-0.062-0.306-0.138-0.625-0.218-0.96c-0.239-0.999-0.511-2.132-0.511-3.463&#xd;&#xa;&#x9;&#x9;c0-1.252,0.368-2.168,0.723-3.055c0.311-0.775,0.604-1.507,0.604-2.36c0-0.857-0.3-1.771-0.618-2.738&#xd;&#xa;&#x9;&#x9;c-0.349-1.061-0.709-2.157-0.709-3.268c0-0.874,0.155-1.595,0.338-2.25c0.254,0.005,0.51,0.009,0.766,0.009&#xd;&#xa;&#x9;&#x9;c6.92,0,13.604-1.75,18.468-4.818c0.222,0.8,0.468,1.699,0.44,2.478c-0.024,0.709-0.333,1.58-0.631,2.422&#xd;&#xa;&#x9;&#x9;c-0.322,0.911-0.656,1.853-0.686,2.709c-0.03,0.863,0.282,1.751,0.584,2.608C66.971,61.767,67.265,62.603,67.238,63.352z"/>
  <path fill="#FFFFFF" id="lock_4_1_" d="M26.945,25.995c1.379,0.04,1.592,0.476,1.621,1.523c0.003,0.114,0.099,0.276,0.004,0.364&#xd;&#xa;&#x9;&#x9;c-1.299,1.207-2.494,2.918-2.721,2.172c-0.259-0.852-0.538-1.64-0.538-2.198C25.312,26.807,25.416,25.952,26.945,25.995z"/>
  <path fill="#FFFFFF" id="lock_5_1_" d="M48.421,19.217c1.529,0.044,1.625,0.576,1.625,1.887c0,1.31-3.256,1.021-3.256-0.026&#xd;&#xa;&#x9;&#x9;C46.791,20.029,46.895,19.173,48.421,19.217z"/>
  <path fill="#FFFFFF" display="none" d="M72.161,59.81c0.005-0.117,0.029-0.231,0.029-0.35c0-8.043-10.92-14.557-24.384-14.557&#xd;&#xa;&#x9;&#x9;c-12.812,0-22.702,8.339-23.751,14.193c-0.208,0.789-0.345,1.587-0.349,2.393c-0.026,6.313,10.655,13.506,24.125,13.506&#xd;&#xa;&#x9;&#x9;c13.464,0,24.383-6.513,24.383-14.554C72.215,60.228,72.177,60.021,72.161,59.81z"/>
  <g>
   <path fill="#FFFFFF" d="M72.529,32.197c0.216-0.732,0.44-1.372,0.44-2.049c0-1.311-0.096-1.843-1.624-1.887&#xd;&#xa;&#x9;&#x9;&#x9;c-0.902-0.025-1.309,0.263-1.49,0.717C69.729,29.294,72.327,32.88,72.529,32.197z"/>
   <path fill="#FFFFFF" d="M71.931,51.704c0.544-1.085,0.862-2.665,0.862-3.478c0-0.956-0.351-1.879-0.54-3.154L71.931,51.704z"/>
  </g>
  <path fill="#FFFFFF" d="M72.19,59.46c0-1.003-0.169-1.979-0.492-2.925l-0.163,3.361c-0.393,3.232-6.905,13.271-22.63,13.271&#xd;&#xa;&#x9;&#x9;c-15.727,0-24.676-8.65-24.348-12.856l-0.083-2.621c-0.185,0.479-0.338,0.951-0.419,1.406c-0.208,0.789-0.345,1.587-0.349,2.393&#xd;&#xa;&#x9;&#x9;c-0.026,6.313,10.655,13.506,24.125,13.506c13.464,0,24.383-6.513,24.383-14.554c0-0.214-0.038-0.42-0.054-0.632&#xd;&#xa;&#x9;&#x9;C72.166,59.692,72.19,59.578,72.19,59.46z"/>
  <path fill="#FFFFFF" stroke="#FFFFFF" stroke-width="0.4616" d="M74.016,37.437&#xd;&#xa;&#x9;&#x9;c0.005-0.126,0.031-0.25,0.031-0.376c0-8.806-11.446-15.943-25.564-15.943c-14.116,0-25.562,7.137-25.562,15.943&#xd;&#xa;&#x9;&#x9;c0,0.236,0.041,0.466,0.057,0.699c-0.005,0.126-0.03,0.25-0.03,0.376c0,8.804,11.444,15.923,25.562,15.923&#xd;&#xa;&#x9;&#x9;c14.118,0,25.564-7.119,25.564-15.923C74.073,37.9,74.032,37.67,74.016,37.437z M48.483,51.573&#xd;&#xa;&#x9;&#x9;c-13.484,0-24.418-6.65-24.418-14.871c0-8.221,10.934-14.886,24.418-14.886c13.486,0,24.418,6.665,24.418,14.886&#xd;&#xa;&#x9;&#x9;C72.901,44.923,61.969,51.573,48.483,51.573z" stroke-miterlimit="10"/>
  <path fill="#FFFFFF" d="M72.801,37.909c0,7.857-10.889,14.211-24.318,14.211c-13.429,0-24.317-6.354-24.317-14.211&#xd;&#xa;&#x9;&#x9;c0-7.857,10.888-14.227,24.317-14.227C61.912,23.682,72.801,30.052,72.801,37.909z"/>
  <path fill="#FFFFFF" id="lock_1_2_" d="M68.794,45.914c1.525,0.043,1.604,0.575,1.558,1.881c-0.045,1.312-0.924,2.471-0.994,4.44&#xd;&#xa;&#x9;&#x9;c-0.067,1.972,1.045,3.844,0.994,5.328c-0.053,1.486-1.271,2.62-1.347,4.806c-0.077,2.184,0.654,3.757,0.609,5.068&#xd;&#xa;&#x9;&#x9;c-0.045,1.309-0.354,1.397-1.622,1.397c-1.266,0-1.76-0.866-1.726-1.836c0.032-0.97,1.413-2.971,1.472-4.63&#xd;&#xa;&#x9;&#x9;c0.058-1.661-1.191-3.441-1.137-5.003c0.054-1.561,1.261-3.561,1.316-5.131c0.054-1.571-0.859-3.417-0.824-4.465&#xd;&#xa;&#x9;&#x9;C67.131,46.725,67.267,45.87,68.794,45.914z"/>
  <path fill="#FFFFFF" id="lock_2_1_" d="M46.019,49.67c1.725,0.049,1.832,0.646,1.832,2.117c0,1.478-0.945,2.79-0.945,5.013&#xd;&#xa;&#x9;&#x9;c0,2.224,1.328,4.332,1.328,6.006s-1.328,2.955-1.328,5.415c0,2.462,0.887,4.234,0.887,5.711c0,1.478-0.346,1.574-1.774,1.574&#xd;&#xa;&#x9;&#x9;c-1.427,0-2.018-0.974-2.018-2.067c0-1.092,1.477-3.348,1.477-5.218S44,64.344,44,62.584s1.28-4.01,1.28-5.784&#xd;&#xa;&#x9;&#x9;c0-1.771-1.103-3.86-1.103-5.041C44.178,50.581,44.296,49.621,46.019,49.67z"/>
  <path fill="#FFFFFF" id="lock_3_1_" d="M25.437,43.246c1.654,0.047,1.787,0.622,1.861,2.038c0.074,1.411-0.766,2.66-0.653,4.787&#xd;&#xa;&#x9;&#x9;c0.111,2.124,1.49,4.145,1.574,5.748c0.085,1.605-1.125,2.831-1.001,5.191c0.124,2.359,1.062,4.059,1.135,5.473&#xd;&#xa;&#x9;&#x9;c0.075,1.417-0.251,1.51-1.62,1.51c-1.368,0-1.982-0.934-2.038-1.981c-0.055-1.048,1.247-3.21,1.153-5.001&#xd;&#xa;&#x9;&#x9;c-0.093-1.792-1.61-3.715-1.699-5.401c-0.087-1.688,1.026-3.846,0.937-5.538c-0.088-1.696-1.25-3.688-1.309-4.815&#xd;&#xa;&#x9;&#x9;C23.718,44.123,23.782,43.198,25.437,43.246z"/>
 </g>
 <g id="_DO_NOT_EDIT_-_HIGHLIGHTS">
  <linearGradient id="HIGHLIGHT_RIM_1_" y1="0" x1="47.9995" y2="144.6673" gradientUnits="userSpaceOnUse" x2="47.9995">
   <stop offset="0" style="stop-color:#FFFFFF"/>
   <stop offset="1" style="stop-color:#000000"/>
  </linearGradient>
  <path fill="url(#HIGHLIGHT_RIM_1_)" fill-opacity="0.25" id="HIGHLIGHT_RIM" d="M48,7.979c-29.635,0-40,10.365-40,40&#xd;&#xa;&#x9;&#x9;c0,29.633,10.365,40,40,40c29.637,0,40-10.367,40-40C88,18.344,77.637,7.979,48,7.979z M48,87.002c-29.159,0-39-9.848-39-39.024&#xd;&#xa;&#x9;&#x9;C9,18.803,18.841,8.956,48,8.956c29.158,0,39,9.847,39,39.022C87,77.154,77.158,87.002,48,87.002z"/>
  <g id="DARK_BEVEL">
   <path fill="#FFFFFF" display="none" fill-opacity="0.05" id="SQUIRCLE" d="M48,87.979c-29.635,0-40-10.367-40-40&#xd;&#xa;&#x9;&#x9;&#x9;c0-29.634,10.365-40,40-40c29.637,0,40,10.365,40,40C88,77.611,77.637,87.979,48,87.979z"/>
   <path stroke-opacity="0.02" fill-opacity="0.02" d="M9.478,64.25C13.244,81.519,24.624,87.979,48,87.979c23.378,0,34.756-6.46,38.522-23.729H9.478z"/>
   <path stroke-opacity="0.02" fill-opacity="0.02" d="M10.242,67.25C14.659,82.271,26.031,87.979,48,87.979c21.971,0,33.342-5.708,37.758-20.729H10.242z"/>
   <path stroke-opacity="0.02" fill-opacity="0.02" d="M11.258,70.25C16.284,83.041,27.555,87.979,48,87.979c20.446,0,31.717-4.938,36.742-17.729H11.258z"/>
   <path stroke-opacity="0.02" fill-opacity="0.02" d="M12.636,73.25C18.211,83.815,29.241,87.979,48,87.979c18.76,0,29.79-4.163,35.365-14.729H12.636z"/>
   <path stroke-opacity="0.02" fill-opacity="0.02" d="M13.797,75.25C19.685,84.348,30.47,87.979,48,87.979c17.531,0,28.316-3.631,34.203-12.729H13.797z"/>
   <path stroke-opacity="0.02" fill-opacity="0.02" d="M15.255,77.25C21.396,84.878,31.821,87.979,48,87.979c16.18,0,26.604-3.101,32.745-10.729H15.255z"/>
   <path fill-opacity="0.02" d="M17.059,79.25c6.305,6.177,16.254,8.729,30.941,8.729c14.688,0,24.638-2.552,30.942-8.729H17.059z"/>
  </g>
  <g id="LIGHT_BEVEL">
   <path stroke-opacity="0.01" fill="#FFFFFF" fill-opacity="0.01" d="M48,8.979c-29.635,0-40,10.365-40,40c0,2.888,0.102,5.588,0.307,8.119l0.219,0.02h78.958&#xd;&#xa;&#x9;&#x9;&#x9;l0.21-0.019c0.205-2.531,0.307-5.23,0.307-8.12C88,19.344,77.637,8.979,48,8.979z"/>
   <path stroke-opacity="0.01" fill="#FFFFFF" fill-opacity="0.01" d="M48,7.979c-29.635,0-40,10.365-40,40c0,1.051,0.017,2.073,0.043,3.077l0.701,0.062H87.26&#xd;&#xa;&#x9;&#x9;&#x9;l0.697-0.063C87.983,50.051,88,49.029,88,47.978C88,18.344,77.637,7.979,48,7.979z"/>
   <path stroke-opacity="0.01" fill="#FFFFFF" fill-opacity="0.01" d="M8.965,46.116h78.072l0.941-0.084C87.521,17.897,76.975,7.979,48,7.979&#xd;&#xa;&#x9;&#x9;&#x9;c-28.973,0-39.521,9.919-39.978,38.054L8.965,46.116z"/>
   <path stroke-opacity="0.01" fill="#FFFFFF" fill-opacity="0.01" d="M9.186,41.116h77.628l0.961-0.086C86.147,16.713,75.187,7.979,48,7.979&#xd;&#xa;&#x9;&#x9;&#x9;c-27.185,0-38.147,8.735-39.775,33.053L9.186,41.116z"/>
   <path stroke-opacity="0.01" fill="#FFFFFF" fill-opacity="0.01" d="M9.186,37.116h77.628c0.201,0,0.397-0.036,0.594-0.066&#xd;&#xa;&#x9;&#x9;&#x9;C84.854,15.753,73.648,7.979,48,7.979c-25.646,0-36.854,7.774-39.408,29.072C8.789,37.08,8.984,37.116,9.186,37.116z"/>
   <path stroke-opacity="0.01" fill="#FFFFFF" fill-opacity="0.01" d="M48,7.979c-24.004,0-35.363,6.805-38.814,25.138h77.628&#xd;&#xa;&#x9;&#x9;&#x9;C83.363,14.783,72.006,7.979,48,7.979z"/>
   <path stroke-opacity="0.01" fill="#FFFFFF" fill-opacity="0.01" d="M84.074,29.67l1.6-0.376c0.083-0.02,0.158-0.058,0.239-0.084&#xd;&#xa;&#x9;&#x9;&#x9;C81.605,13.805,70.22,7.979,48,7.979c-22.218,0-33.604,5.827-37.913,21.231c0.081,0.026,0.156,0.064,0.239,0.084l1.599,0.376&#xd;&#xa;&#x9;&#x9;&#x9;c0.226,0.053,0.456,0.08,0.688,0.08h70.773C83.618,29.75,83.849,29.723,84.074,29.67z"/>
   <path stroke-opacity="0.01" fill="#FFFFFF" fill-opacity="0.01" d="M12.613,26.75h70.773l1.6-0.376C80.091,13.093,68.794,7.979,48,7.979&#xd;&#xa;&#x9;&#x9;&#x9;c-20.792,0-32.09,5.115-36.986,18.395L12.613,26.75z"/>
   <path stroke-opacity="0.01" fill="#FFFFFF" fill-opacity="0.01" d="M12.613,24.75h70.773c0.305,0,0.595-0.081,0.86-0.208C78.999,12.621,67.81,7.979,48,7.979&#xd;&#xa;&#x9;&#x9;&#x9;c-19.808,0-30.998,4.643-36.247,16.563C12.019,24.669,12.309,24.75,12.613,24.75z"/>
   <path stroke-opacity="0.01" fill="#FFFFFF" fill-opacity="0.01" d="M83.387,22.75C77.82,12.153,66.786,7.979,48,7.979c-18.785,0-29.819,4.174-35.387,14.771&#xd;&#xa;&#x9;&#x9;&#x9;H83.387z"/>
  </g>
 </g>
 <g id="GUIDES"/>
</svg>
